<svg width="41" height="41" viewBox="0 0 41 41" fill="none" xmlns="http://www.w3.org/2000/svg">
<path d="M20.5 27.3333C24.2739 27.3333 27.3333 24.2739 27.3333 20.5C27.3333 16.726 24.2739 13.6666 20.5 13.6666C16.726 13.6666 13.6666 16.726 13.6666 20.5C13.6666 24.2739 16.726 27.3333 20.5 27.3333Z" stroke="#252541" stroke-width="3" stroke-linecap="round" stroke-linejoin="round"/>
<path d="M27.3333 13.6667V22.2083C27.3333 23.5676 27.8733 24.8711 28.8344 25.8323C29.7955 26.7934 31.0991 27.3333 32.4583 27.3333C33.8175 27.3333 35.1211 26.7934 36.0822 25.8323C37.0434 24.8711 37.5833 23.5676 37.5833 22.2083V20.5C37.5831 16.6443 36.2785 12.9021 33.8818 9.88191C31.4851 6.86166 28.1372 4.74101 24.3824 3.86476C20.6276 2.9885 16.6869 3.40819 13.2009 5.05558C9.71486 6.70297 6.88865 9.48117 5.18179 12.9384C3.47493 16.3957 2.98779 20.3287 3.7996 24.0979C4.6114 27.8672 6.67439 31.2509 9.65313 33.699C12.6319 36.1471 16.3512 37.5156 20.2063 37.5819C24.0613 37.6482 27.8255 36.4084 30.8866 34.0642" stroke="#252541" stroke-width="3" stroke-linecap="round" stroke-linejoin="round"/>
</svg>
