<svg width="36" height="36" viewBox="0 0 36 36" fill="none" xmlns="http://www.w3.org/2000/svg">
<path d="M28.5 16.5H7.5C5.84315 16.5 4.5 17.8431 4.5 19.5V30C4.5 31.6569 5.84315 33 7.5 33H28.5C30.1569 33 31.5 31.6569 31.5 30V19.5C31.5 17.8431 30.1569 16.5 28.5 16.5Z" stroke="#252541" stroke-width="3" stroke-linecap="round" stroke-linejoin="round"/>
<path d="M10.5 16.5V10.5C10.5 8.51088 11.2902 6.60322 12.6967 5.1967C14.1032 3.79018 16.0109 3 18 3C19.9891 3 21.8968 3.79018 23.3033 5.1967C24.7098 6.60322 25.5 8.51088 25.5 10.5V16.5" stroke="#252541" stroke-width="3" stroke-linecap="round" stroke-linejoin="round"/>
</svg>
