<svg width="31" height="30" viewBox="0 0 31 30" fill="none" xmlns="http://www.w3.org/2000/svg">
<path d="M20.0208 9.375L24.5417 5M27.125 2.5L24.5417 5L27.125 2.5ZM14.7121 14.5125C15.379 15.1493 15.9092 15.9075 16.2721 16.7435C16.635 17.5794 16.8234 18.4766 16.8266 19.3833C16.8297 20.29 16.6475 21.1884 16.2904 22.0266C15.9333 22.8649 15.4084 23.6265 14.7458 24.2677C14.0833 24.9088 13.2963 25.4168 12.4301 25.7624C11.5639 26.108 10.6356 26.2843 9.69864 26.2813C8.76171 26.2782 7.83465 26.0959 6.97084 25.7447C6.10704 25.3935 5.32355 24.8804 4.66549 24.235C3.37141 22.9384 2.65535 21.2017 2.67153 19.3991C2.68772 17.5965 3.43486 15.8722 4.75203 14.5975C6.0692 13.3228 7.85101 12.5998 9.7137 12.5841C11.5764 12.5685 13.3709 13.2614 14.7108 14.5138L14.7121 14.5125ZM14.7121 14.5125L20.0208 9.375L14.7121 14.5125ZM20.0208 9.375L23.8958 13.125L28.4167 8.75L24.5417 5L20.0208 9.375Z" stroke="#252541" stroke-width="3" stroke-linecap="round" stroke-linejoin="round"/>
</svg>
